<svg id="Livello_1" data-name="Livello 1" xmlns="http://www.w3.org/2000/svg" viewBox="0 0 1542.99 372"><defs><style>.cls-1{fill:#ff1d25;stroke:#ff1d25;}.cls-1,.cls-2{stroke-miterlimit:10;stroke-width:12px;}.cls-2{fill:#3fa9f5;stroke:#3fa9f5;}</style></defs><title>navbar-logo</title><path class="cls-1" d="M349.67,751l-112.5,270a27,27,0,0,1-9,12.5,21.94,21.94,0,0,1-13.5,4.5q-11,0-16.5-6.25t-6-15.75a25.7,25.7,0,0,1,1.5-8l127-307a27.75,27.75,0,0,1,10.25-13,23.32,23.32,0,0,1,14.75-4,24.14,24.14,0,0,1,14,4.5,25.83,25.83,0,0,1,9.5,12.5l125.5,302.5a27,27,0,0,1,2,10q0,11-7.25,17.75T473.17,1038a22.24,22.24,0,0,1-13.75-4.75,28.16,28.16,0,0,1-9.25-12.25L336.67,752.5Zm-92.5,199,22.5-48h141.5l8.5,48Z" transform="translate(-186.17 -675)"/><path class="cls-1" d="M561.67,738q-14.52,0-21-5.25T534.17,715v-8q0-12.5,7-17.5t21-5q15,0,21.5,5.25c4.32,3.5,6.5,9.25,6.5,17.25v8q0,13-6.75,18T561.67,738Zm25.5,272.5q0,11-7,18.25t-18,7.25a24.13,24.13,0,0,1-17.75-7.25q-7.26-7.25-7.25-18.25v-214q0-11,7.25-18.25A24.13,24.13,0,0,1,562.17,771q11,0,18,7.25t7,18.25Z" transform="translate(-186.17 -675)"/><path class="cls-2" d="M822.66,1041q-38,0-71-13.75a177.21,177.21,0,0,1-57.75-38.5,182,182,0,0,1-38.75-57.25q-14-32.5-14-70.5t14-70.5a182,182,0,0,1,38.75-57.25,177.21,177.21,0,0,1,57.75-38.5q33-13.75,71-13.75a203.42,203.42,0,0,1,47.5,5.5,158.33,158.33,0,0,1,41.5,16,22.18,22.18,0,0,1,9.5,9.25,24.2,24.2,0,0,1,3,11.25,26.9,26.9,0,0,1-6.75,18.25A21.33,21.33,0,0,1,900.66,749a27.92,27.92,0,0,1-7.25-1,35.79,35.79,0,0,1-6.75-2.5,136.5,136.5,0,0,0-30-10.75,148.67,148.67,0,0,0-34-3.75q-36,0-65,17.25A125.54,125.54,0,0,0,711.91,795q-16.75,29.5-16.75,66,0,36,16.75,65.75a125,125,0,0,0,45.75,47q29,17.25,65,17.25a174.22,174.22,0,0,0,37-4.25q19.5-4.25,33-11.25l-4,13.5V894l8,7h-65.5q-11,0-18.25-7t-7.25-18q0-11,7.25-18t18.25-7h86.5a24.16,24.16,0,0,1,17.75,7.25,24.76,24.76,0,0,1,7.25,18.25v111a22.39,22.39,0,0,1-4,13.5,38.42,38.42,0,0,1-9,9,215.11,215.11,0,0,1-49.75,22.5A191.38,191.38,0,0,1,822.66,1041Z" transform="translate(-186.17 -675)"/><path class="cls-2" d="M1198.66,773a24.16,24.16,0,0,1,17.75,7.25,24.76,24.76,0,0,1,7.25,18.25V930q0,52-29,81.25t-82,29.25q-52.5,0-81.25-29.25T1002.66,930V798.5q0-11,7-18.25t18-7.25a24.16,24.16,0,0,1,17.75,7.25,24.76,24.76,0,0,1,7.25,18.25V930q0,32.5,15.25,48.5t44.75,16q30,0,45.5-16t15.5-48.5V798.5q0-11,7-18.25T1198.66,773Z" transform="translate(-186.17 -675)"/><path class="cls-2" d="M1318.16,1036q-11,0-18-7.25t-7-18.25v-212q0-11,7-18.25t18-7.25a24.16,24.16,0,0,1,17.75,7.25,24.8,24.8,0,0,1,7.25,18.25v56l-5-21.5a88.39,88.39,0,0,1,12.25-26,94.2,94.2,0,0,1,19.75-21,90.13,90.13,0,0,1,55.5-19q13,0,22.5,7t9.5,17.5q0,13.5-7,19.75a22.77,22.77,0,0,1-15.5,6.25,34,34,0,0,1-14.5-3.25,38.89,38.89,0,0,0-16.5-3.25,47.8,47.8,0,0,0-21.5,5.5,62.75,62.75,0,0,0-20,16.25A82.86,82.86,0,0,0,1348.41,858a95,95,0,0,0-5.25,32.5v120a24.8,24.8,0,0,1-7.25,18.25A24.16,24.16,0,0,1,1318.16,1036Z" transform="translate(-186.17 -675)"/><path class="cls-2" d="M1698.16,773a24.16,24.16,0,0,1,17.75,7.25,24.8,24.8,0,0,1,7.25,18.25V930q0,52-29,81.25t-82,29.25q-52.5,0-81.25-29.25T1502.16,930V798.5q0-11,7-18.25t18-7.25a24.16,24.16,0,0,1,17.75,7.25,24.8,24.8,0,0,1,7.25,18.25V930q0,32.5,15.25,48.5t44.75,16q30,0,45.5-16t15.5-48.5V798.5q0-11,7-18.25T1698.16,773Z" transform="translate(-186.17 -675)"/></svg>